<svg width="266" height="78" viewBox="0 0 266 78" fill="none" xmlns="http://www.w3.org/2000/svg">
<mask id="mask0_3303_39015" style="mask-type:alpha" maskUnits="userSpaceOnUse" x="0" y="11" width="27" height="28">
<path fill-rule="evenodd" clip-rule="evenodd" d="M26.8409 11.2457H0V38.5908H26.8409V11.2457V11.2457Z" fill="white"/>
</mask>
<g mask="url(#mask0_3303_39015)">
<path fill-rule="evenodd" clip-rule="evenodd" d="M26.8406 18.2426V18.2497L-0.000488281 38.5908V17.2452C-0.000488281 13.0841 4.23062 10.1887 8.23016 11.6127L24.4353 17.3838L24.4859 17.398L24.7884 17.5175H24.7949L26.8406 18.2426Z" fill="#F67222"/>
</g>
<path fill-rule="evenodd" clip-rule="evenodd" d="M0 54.408C0 58.4891 4.15006 61.3294 8.07289 59.9323L26.8411 53.2472V18.2498L5.24854 25.9408C2.0971 27.0635 0 29.9922 0 33.2711V54.408Z" fill="#FA9626"/>
<path fill-rule="evenodd" clip-rule="evenodd" d="M45.4494 11.6161L26.8403 18.2496H44.6143C47.7846 18.2496 50.3549 20.7623 50.3549 23.8615V33.4527L53.6815 35.6039V17.2479C53.6815 13.0861 49.4489 10.1907 45.4494 11.6161" fill="#FBB82C"/>
<mask id="mask1_3303_39015" style="mask-type:alpha" maskUnits="userSpaceOnUse" x="26" y="18" width="28" height="43">
<path fill-rule="evenodd" clip-rule="evenodd" d="M53.6817 60.291H26.8408V18.2493H53.6817V60.291Z" fill="white"/>
</mask>
<g mask="url(#mask1_3303_39015)">
<path fill-rule="evenodd" clip-rule="evenodd" d="M46.1916 25.1423L26.8408 18.2493V18.6949L38.3148 26.7496C40.2288 28.6384 41.234 30.767 41.234 32.9317V58.3712L45.6076 59.9303C49.5305 61.3282 53.682 58.4886 53.682 54.4061V35.6036C53.682 30.9241 50.689 26.7446 46.1916 25.1423" fill="#F67222"/>
</g>
<path d="M76.4937 56.3597C74.5903 56.3597 73.1215 55.8276 72.0874 54.7635C71.0682 53.6844 70.5586 52.1707 70.5586 50.2223V36.8685H68.0407C67.771 36.8685 67.5386 36.786 67.3438 36.6212C67.149 36.4413 67.0516 36.179 67.0516 35.8343V33.8784L70.761 33.3389L71.8176 26.7069C71.8925 26.4521 72.0199 26.2498 72.1998 26.0999C72.3796 25.9351 72.6194 25.8526 72.9192 25.8526H75.3921V33.3839H81.7543V36.8685H75.3921V49.8851C75.3921 50.7094 75.5944 51.3389 75.9991 51.7735C76.4038 52.2082 76.9433 52.4255 77.6177 52.4255C77.9924 52.4255 78.3147 52.3805 78.5844 52.2906C78.8542 52.1857 79.0865 52.0808 79.2814 51.9759C79.4762 51.856 79.6411 51.751 79.7759 51.6611C79.9258 51.5562 80.0682 51.5037 80.2031 51.5037C80.4729 51.5037 80.6902 51.6536 80.855 51.9534L82.2938 54.3139C81.5445 54.9734 80.6602 55.4829 79.6411 55.8426C78.6219 56.1873 77.5728 56.3597 76.4937 56.3597ZM97.8164 45.9734C96.0929 46.0333 94.6391 46.1757 93.4551 46.4005C92.2711 46.6103 91.3119 46.8876 90.5775 47.2323C89.8431 47.562 89.311 47.9592 88.9813 48.4238C88.6666 48.8884 88.5092 49.398 88.5092 49.9525C88.5092 50.4921 88.5916 50.9567 88.7565 51.3464C88.9363 51.7211 89.1761 52.0358 89.4759 52.2906C89.7906 52.5304 90.1503 52.7102 90.555 52.8301C90.9746 52.9351 91.4318 52.9875 91.9264 52.9875C93.1853 52.9875 94.2644 52.7552 95.1637 52.2906C96.0779 51.811 96.9622 51.1216 97.8164 50.2223V45.9734ZM85.0021 36.2615C87.595 33.8485 90.6824 32.642 94.2644 32.642C95.5833 32.642 96.7523 32.8593 97.7715 33.2939C98.8056 33.7136 99.6674 34.3131 100.357 35.0924C101.061 35.8718 101.593 36.801 101.953 37.8801C102.328 38.9442 102.515 40.1282 102.515 41.4321V56H100.357C99.8922 56 99.54 55.9326 99.3002 55.7977C99.0604 55.6478 98.8581 55.3555 98.6932 54.9209L98.2211 53.055C97.6366 53.5795 97.0596 54.0516 96.49 54.4713C95.9205 54.8759 95.3285 55.2206 94.714 55.5054C94.1145 55.7902 93.4626 56 92.7582 56.1349C92.0687 56.2848 91.3044 56.3597 90.4651 56.3597C89.5358 56.3597 88.6666 56.2323 87.8572 55.9775C87.0629 55.7227 86.3735 55.3405 85.789 54.831C85.2045 54.3064 84.7398 53.6619 84.3951 52.8976C84.0654 52.1332 83.9005 51.234 83.9005 50.1998C83.9005 49.3156 84.1329 48.4538 84.5975 47.6145C85.0771 46.7752 85.8564 46.0258 86.9355 45.3664C88.0296 44.6919 89.4609 44.1374 91.2294 43.7028C93.0129 43.2681 95.2086 43.0208 97.8164 42.9609V41.4321C97.8164 39.7835 97.4642 38.5545 96.7598 37.7452C96.0554 36.9359 95.0213 36.5312 93.6574 36.5312C92.7282 36.5312 91.9488 36.6511 91.3194 36.8909C90.6899 37.1157 90.1428 37.363 89.6782 37.6328C89.2136 37.9026 88.8015 38.1574 88.4418 38.3972C88.0821 38.622 87.6999 38.7344 87.2952 38.7344C86.9655 38.7344 86.6807 38.652 86.4409 38.4871C86.2161 38.3073 86.0288 38.0899 85.8789 37.8351L85.0021 36.2615ZM113.101 22.7277V56H108.267V22.7277H113.101ZM134.106 41.9492C134.106 41.1399 133.987 40.3905 133.747 39.7011C133.522 38.9967 133.185 38.3897 132.735 37.8801C132.285 37.3555 131.723 36.9509 131.049 36.6661C130.39 36.3664 129.625 36.2165 128.756 36.2165C127.002 36.2165 125.624 36.7186 124.619 37.7227C123.615 38.7269 122.978 40.1357 122.708 41.9492H134.106ZM122.574 44.9167C122.634 46.2207 122.836 47.3522 123.181 48.3114C123.525 49.2556 123.982 50.0425 124.552 50.6719C125.136 51.3014 125.826 51.7735 126.62 52.0883C127.43 52.388 128.329 52.5379 129.318 52.5379C130.262 52.5379 131.079 52.433 131.768 52.2231C132.458 51.9983 133.057 51.7585 133.567 51.5037C134.076 51.234 134.511 50.9942 134.871 50.7843C135.231 50.5595 135.56 50.4471 135.86 50.4471C136.25 50.4471 136.549 50.597 136.759 50.8968L138.131 52.6728C137.561 53.3472 136.917 53.9167 136.197 54.3813C135.478 54.846 134.713 55.2281 133.904 55.5279C133.095 55.8127 132.263 56.015 131.409 56.1349C130.554 56.2698 129.723 56.3372 128.913 56.3372C127.325 56.3372 125.848 56.0749 124.484 55.5504C123.136 55.0108 121.959 54.224 120.955 53.1898C119.966 52.1557 119.186 50.8743 118.617 49.3455C118.062 47.8168 117.785 46.0558 117.785 44.0625C117.785 42.4738 118.032 40.99 118.527 39.6112C119.037 38.2323 119.756 37.0333 120.685 36.0142C121.629 34.995 122.768 34.1932 124.102 33.6087C125.451 33.0092 126.972 32.7094 128.666 32.7094C130.075 32.7094 131.379 32.9417 132.578 33.4063C133.777 33.856 134.811 34.5229 135.68 35.4072C136.549 36.2914 137.224 37.378 137.703 38.667C138.198 39.9409 138.445 41.3947 138.445 43.0283C138.445 43.7777 138.363 44.2798 138.198 44.5346C138.033 44.7893 137.733 44.9167 137.299 44.9167H122.574ZM147.786 50.2448C148.461 51.1141 149.195 51.7286 149.989 52.0883C150.799 52.433 151.676 52.6053 152.62 52.6053C154.523 52.6053 156.007 51.9159 157.071 50.5371C158.135 49.1582 158.667 47.0225 158.667 44.1299C158.667 41.4921 158.203 39.5662 157.273 38.3522C156.359 37.1382 155.048 36.5312 153.339 36.5312C152.155 36.5312 151.121 36.801 150.237 37.3406C149.367 37.8651 148.551 38.622 147.786 39.6112V50.2448ZM147.786 36.1041C148.73 35.07 149.787 34.2456 150.956 33.6312C152.125 33.0167 153.459 32.7094 154.958 32.7094C156.292 32.7094 157.491 32.9717 158.555 33.4963C159.634 34.0058 160.548 34.7477 161.298 35.7219C162.047 36.6961 162.624 37.8801 163.029 39.2739C163.433 40.6528 163.636 42.2115 163.636 43.95C163.636 45.8085 163.403 47.5021 162.939 49.0308C162.489 50.5445 161.837 51.8485 160.983 52.9425C160.128 54.0216 159.094 54.8609 157.88 55.4604C156.666 56.045 155.31 56.3372 153.811 56.3372C153.077 56.3372 152.41 56.2623 151.81 56.1124C151.211 55.9775 150.656 55.7752 150.147 55.5054C149.637 55.2356 149.165 54.9134 148.73 54.5387C148.311 54.164 147.906 53.7369 147.517 53.2573L147.314 55.0333C147.239 55.378 147.104 55.6253 146.91 55.7752C146.715 55.9251 146.445 56 146.1 56H142.953V22.7277H147.786V36.1041ZM178.246 32.7094C179.94 32.7094 181.469 32.9867 182.832 33.5412C184.211 34.0958 185.38 34.8826 186.34 35.9018C187.314 36.9209 188.063 38.1574 188.588 39.6112C189.112 41.065 189.374 42.6986 189.374 44.5121C189.374 46.3256 189.112 47.9592 188.588 49.413C188.063 50.8668 187.314 52.1107 186.34 53.1449C185.38 54.164 184.211 54.9509 182.832 55.5054C181.469 56.0599 179.94 56.3372 178.246 56.3372C176.538 56.3372 174.994 56.0599 173.615 55.5054C172.251 54.9509 171.082 54.164 170.108 53.1449C169.134 52.1107 168.385 50.8668 167.86 49.413C167.335 47.9592 167.073 46.3256 167.073 44.5121C167.073 42.6986 167.335 41.065 167.86 39.6112C168.385 38.1574 169.134 36.9209 170.108 35.9018C171.082 34.8826 172.251 34.0958 173.615 33.5412C174.994 32.9867 176.538 32.7094 178.246 32.7094ZM178.246 52.5604C180.315 52.5604 181.851 51.8709 182.855 50.4921C183.874 49.0983 184.384 47.1124 184.384 44.5346C184.384 41.9567 183.874 39.9709 182.855 38.577C181.851 37.1682 180.315 36.4638 178.246 36.4638C176.148 36.4638 174.589 37.1682 173.57 38.577C172.551 39.9709 172.041 41.9567 172.041 44.5346C172.041 47.1124 172.551 49.0983 173.57 50.4921C174.589 51.8709 176.148 52.5604 178.246 52.5604ZM203.933 32.7094C205.626 32.7094 207.155 32.9867 208.519 33.5412C209.898 34.0958 211.067 34.8826 212.026 35.9018C213 36.9209 213.75 38.1574 214.274 39.6112C214.799 41.065 215.061 42.6986 215.061 44.5121C215.061 46.3256 214.799 47.9592 214.274 49.413C213.75 50.8668 213 52.1107 212.026 53.1449C211.067 54.164 209.898 54.9509 208.519 55.5054C207.155 56.0599 205.626 56.3372 203.933 56.3372C202.224 56.3372 200.681 56.0599 199.302 55.5054C197.938 54.9509 196.769 54.164 195.795 53.1449C194.82 52.1107 194.071 50.8668 193.547 49.413C193.022 47.9592 192.76 46.3256 192.76 44.5121C192.76 42.6986 193.022 41.065 193.547 39.6112C194.071 38.1574 194.82 36.9209 195.795 35.9018C196.769 34.8826 197.938 34.0958 199.302 33.5412C200.681 32.9867 202.224 32.7094 203.933 32.7094ZM203.933 52.5604C206.001 52.5604 207.537 51.8709 208.542 50.4921C209.561 49.0983 210.07 47.1124 210.07 44.5346C210.07 41.9567 209.561 39.9709 208.542 38.577C207.537 37.1682 206.001 36.4638 203.933 36.4638C201.835 36.4638 200.276 37.1682 199.257 38.577C198.238 39.9709 197.728 41.9567 197.728 44.5346C197.728 47.1124 198.238 49.0983 199.257 50.4921C200.276 51.8709 201.835 52.5604 203.933 52.5604ZM224.539 22.7277V42.0167H225.573C225.903 42.0167 226.172 41.9717 226.382 41.8818C226.592 41.7918 226.809 41.6045 227.034 41.3197L233.464 33.9684C233.689 33.6686 233.936 33.4438 234.206 33.2939C234.475 33.1441 234.82 33.0691 235.24 33.0691H239.624L231.89 41.7918C231.44 42.3764 230.946 42.841 230.406 43.1857C230.706 43.3955 230.968 43.6353 231.193 43.9051C231.418 44.1599 231.635 44.4521 231.845 44.7819L240.096 56H235.779C235.39 56 235.052 55.94 234.768 55.8201C234.498 55.6853 234.258 55.4455 234.048 55.1007L227.416 46.1082C227.191 45.7635 226.967 45.5462 226.742 45.4563C226.517 45.3514 226.18 45.2989 225.73 45.2989H224.539V56H219.705V22.7277H224.539Z" fill="black"/>
</svg>
